<?xml version="1.0" encoding="UTF-8" standalone="no"?><!DOCTYPE svg PUBLIC "-//W3C//DTD SVG 1.1//EN" "http://www.w3.org/Graphics/SVG/1.1/DTD/svg11.dtd"><svg width="100%" height="100%" viewBox="0 0 733 284" version="1.1" xmlns="http://www.w3.org/2000/svg" xmlns:xlink="http://www.w3.org/1999/xlink" xml:space="preserve" xmlns:serif="http://www.serif.com/" style="fill-rule:evenodd;clip-rule:evenodd;stroke-linejoin:round;stroke-miterlimit:2;"><rect id="Artboard7" x="0" y="-0" width="732.363" height="283.812" style="fill:none;"/><g><g id="VDBX-logo-v002" serif:id="VDBX logo v002"><g><path d="M266.378,200.673c-2.06,-0 -3.863,-0.773 -5.408,-2.318l-30.907,-30.907c-1.545,-1.545 -2.318,-3.348 -2.318,-5.408l0,-30.907c0,-2.06 0.773,-3.863 2.318,-5.409c1.545,-1.545 3.348,-2.318 5.409,-2.318c2.06,0 3.863,0.773 5.408,2.318c1.546,1.546 2.318,3.349 2.318,5.409l0,23.489l23.18,23.18l23.18,-23.18l0,-23.489c0,-2.06 0.773,-3.863 2.318,-5.409c1.546,-1.545 3.349,-2.318 5.409,-2.318c2.06,0 3.863,0.773 5.409,2.318c1.545,1.546 2.318,3.349 2.318,5.409l-0,30.907c-0,2.06 -0.773,3.863 -2.318,5.408l-30.907,30.907c-1.545,1.545 -3.348,2.318 -5.409,2.318Z" style="fill-rule:nonzero;"/><path d="M334.721,138.86c-2.061,-0 -3.864,0.772 -5.409,2.318c-1.545,1.545 -2.318,3.348 -2.318,5.408l-0,30.907c-0,2.06 0.773,3.863 2.318,5.409c1.545,1.545 3.348,2.318 5.409,2.318l38.633,-0l-0,-46.36l-38.633,-0Zm46.36,61.813l-46.36,-0c-6.182,-0 -11.59,-2.318 -16.226,-6.954c-4.636,-4.636 -6.954,-10.045 -6.954,-16.226l-0,-30.907c-0,-6.181 2.318,-11.59 6.954,-16.226c4.636,-4.636 10.044,-6.954 16.226,-6.954l38.633,0l-0,-23.18c-0,-2.06 0.773,-3.863 2.318,-5.408c1.545,-1.546 3.348,-2.318 5.409,-2.318c2.06,-0 3.863,0.772 5.408,2.318c1.546,1.545 2.318,3.348 2.318,5.408l0,92.72c0,2.061 -0.772,3.864 -2.318,5.409c-1.545,1.545 -3.348,2.318 -5.408,2.318Z" style="fill-rule:nonzero;"/><path d="M449.423,138.86l-38.633,-0l-0,46.36l38.633,-0c2.06,-0 3.863,-0.773 5.408,-2.318c1.546,-1.546 2.318,-3.349 2.318,-5.409l0,-30.907c0,-2.06 -0.772,-3.863 -2.318,-5.408c-1.545,-1.546 -3.348,-2.318 -5.408,-2.318Zm-46.36,61.813c-2.061,-0 -3.863,-0.773 -5.409,-2.318c-1.545,-1.545 -2.318,-3.348 -2.318,-5.409l0,-92.72c0,-2.06 0.773,-3.863 2.318,-5.408c1.546,-1.546 3.348,-2.318 5.409,-2.318c2.06,-0 3.863,0.772 5.409,2.318c1.545,1.545 2.318,3.348 2.318,5.408l-0,23.18l38.633,0c6.181,0 11.59,2.318 16.226,6.954c4.636,4.636 6.954,10.045 6.954,16.226l-0,30.907c-0,6.181 -2.318,11.59 -6.954,16.226c-4.636,4.636 -10.045,6.954 -16.226,6.954l-46.36,-0Z" style="fill-rule:nonzero;"/><path d="M517.765,172.548l-25.498,25.807c-1.545,1.545 -3.348,2.318 -5.409,2.318c-2.06,-0 -3.863,-0.773 -5.408,-2.318c-1.546,-1.545 -2.318,-3.348 -2.318,-5.409c-0,-2.06 0.772,-3.863 2.318,-5.408l25.189,-25.498l-25.189,-25.498c-1.546,-1.546 -2.318,-3.349 -2.318,-5.409c-0,-2.06 0.772,-3.863 2.318,-5.409c1.545,-1.545 3.348,-2.318 5.408,-2.318c2.061,0 3.864,0.773 5.409,2.318l25.498,25.189l25.498,-25.189c1.545,-1.545 3.348,-2.318 5.409,-2.318c2.06,0 3.863,0.773 5.408,2.318c1.546,1.546 2.318,3.349 2.318,5.409c0,2.06 -0.772,3.863 -2.318,5.409l-25.807,25.498l25.807,25.498c1.546,1.545 2.318,3.348 2.318,5.408c0,2.061 -0.772,3.864 -2.318,5.409c-1.545,1.545 -3.348,2.318 -5.408,2.318c-2.061,-0 -3.864,-0.773 -5.409,-2.318l-25.498,-25.807Z" style="fill-rule:nonzero;"/><path d="M593.834,138.86l-7.727,-0c-2.06,-0 -3.863,-0.773 -5.408,-2.318c-1.546,-1.546 -2.318,-3.349 -2.318,-5.409c-0,-2.06 0.772,-3.863 2.318,-5.409c1.545,-1.545 3.348,-2.318 5.408,-2.318l15.454,0c2.06,0 3.863,0.773 5.408,2.318c1.546,1.546 2.318,3.349 2.318,5.409l0,54.087l7.727,-0c2.06,-0 3.863,0.772 5.409,2.318c1.545,1.545 2.318,3.348 2.318,5.408c-0,2.061 -0.773,3.864 -2.318,5.409c-1.546,1.545 -3.349,2.318 -5.409,2.318l-30.907,-0c-2.06,-0 -3.863,-0.773 -5.408,-2.318c-1.546,-1.545 -2.318,-3.348 -2.318,-5.409c-0,-2.06 0.772,-3.863 2.318,-5.408c1.545,-1.546 3.348,-2.318 5.408,-2.318l7.727,-0l0,-46.36Zm7.727,-30.907c-2.061,0 -3.864,-0.773 -5.409,-2.318c-1.545,-1.545 -2.318,-3.348 -2.318,-5.409c0,-2.06 0.773,-3.863 2.318,-5.408c1.545,-1.546 3.348,-2.318 5.409,-2.318c2.06,-0 3.863,0.772 5.408,2.318c1.546,1.545 2.318,3.348 2.318,5.408c0,2.061 -0.772,3.864 -2.318,5.409c-1.545,1.545 -3.348,2.318 -5.408,2.318Z" style="fill-rule:nonzero;"/><path d="M652.379,200.673c-6.181,-0 -11.59,-2.318 -16.226,-6.954c-4.636,-4.636 -6.954,-10.045 -6.954,-16.226l-0,-30.907c-0,-6.181 2.318,-11.59 6.954,-16.226c4.636,-4.636 10.045,-6.954 16.226,-6.954l30.907,0c6.181,0 11.59,2.318 16.225,6.954c4.636,4.636 6.954,10.045 6.954,16.226l0,30.907c0,6.181 -2.318,11.59 -6.954,16.226c-4.635,4.636 -10.044,6.954 -16.225,6.954l-30.907,-0Zm38.633,-54.087c0,-2.06 -0.772,-3.863 -2.318,-5.408c-1.545,-1.546 -3.348,-2.318 -5.408,-2.318l-30.907,-0c-2.061,-0 -3.863,0.772 -5.409,2.318c-1.545,1.545 -2.318,3.348 -2.318,5.408l0,30.907c0,2.06 0.773,3.863 2.318,5.409c1.546,1.545 3.348,2.318 5.409,2.318l30.907,-0c2.06,-0 3.863,-0.773 5.408,-2.318c1.546,-1.546 2.318,-3.349 2.318,-5.409l0,-30.907Z" style="fill-rule:nonzero;"/><path d="M562.723,183.288l8.693,-0c1.159,-0 2.173,0.435 3.042,1.304c0.87,0.869 1.304,1.883 1.304,3.042l0,8.693c0,1.159 -0.434,2.173 -1.304,3.042c-0.869,0.869 -1.883,1.304 -3.042,1.304l-8.693,-0c-1.159,-0 -2.173,-0.435 -3.042,-1.304c-0.869,-0.869 -1.304,-1.883 -1.304,-3.042l0,-8.693c0,-1.159 0.435,-2.173 1.304,-3.042c0.869,-0.869 1.883,-1.304 3.042,-1.304Z" style="fill-rule:nonzero;"/></g></g><path d="M75.949,62.163c0.533,-0.071 0.683,-0.016 0.875,-0.002c25.682,2.957 51.523,4.768 77.047,8.871l0.003,-0l0.024,0.004l0.032,0.005l-0,0.001c0.754,0.13 1.206,0.173 2.227,1.135l25.876,27.386c0.483,0.57 0.785,0.851 0.999,2.168l11.156,104.394c0.027,0.578 -0.082,1.126 -0.295,1.62c-0.217,0.811 -0.725,1.541 -1.574,2.024c-0.313,0.178 -0.404,0.196 -0.741,0.321l-110.668,34.242c-0.088,0.022 -0.175,0.04 -0.262,0.055c-1.079,0.237 -2.265,0.007 -3.145,-0.682c-0.195,-0.153 -0.235,-0.202 -0.412,-0.376l-49.776,-52.681c-1.11,-1.266 -1.093,-1.853 -1.036,-2.515l-11.033,-103.281c-0.215,-0.554 -0.13,-0.949 -0.1,-1.431c0.091,-1.473 1.151,-2.823 2.547,-3.309c0.026,-0.01 0.052,-0.02 0.078,-0.029l57.523,-17.78c0.166,-0.041 0.338,-0.109 0.655,-0.14Zm7.308,173.624l100.386,-31.061l-44.025,-46.63l-62.472,19.323l0.073,0.7c0.16,2.969 -3.491,5.273 -5.991,3.349c-0.625,-0.481 -1.027,-0.865 -1.284,-1.821l-33.08,10.232l38.323,40.559l-0.73,-6.967c-0.123,-2.305 1.809,-4.326 4.269,-4.083c1.649,0.334 2.897,1.621 3.16,3.305l1.371,13.094Zm-7.875,-48.343c1.649,0.333 2.897,1.62 3.16,3.304l2.022,19.315c0.132,2.468 -0.865,3.011 -1.729,3.553c-2.1,1.318 -5.277,-0.066 -5.7,-2.775l-2.022,-19.315c-0.124,-2.305 1.808,-4.325 4.269,-4.082Zm98.244,-85.902l-19.846,-21.005l-14.984,20.093l1.165,10.874l14.023,-4.15c1.198,-0.285 1.236,-0.147 1.601,-0.114c3.111,0.63 4.236,5.324 1.263,6.965c-0.315,0.175 -0.407,0.192 -0.745,0.312l-15.334,4.538l3.548,33.137l41.266,43.709l-9.334,-87.346l-9.402,2.783c-2.959,0.704 -5.901,-2.673 -4.292,-5.453c0.446,-0.769 0.764,-1.209 2.173,-1.71l8.898,-2.633Zm-40.947,12.117l-1.263,-11.799l-55.472,-31.94l-50.209,15.519l6.147,6.453c1.196,1.353 1.334,3.465 0.246,4.866c-1.195,1.54 -3.658,1.889 -5.24,0.66c-0.197,-0.152 -0.237,-0.201 -0.415,-0.374l-2.717,-2.853l9.505,88.983l35.817,-11.078l-1.31,-12.515c-0.124,-2.305 1.808,-4.325 4.269,-4.082c1.649,0.334 2.897,1.621 3.16,3.304l1.156,11.043l60.343,-18.665l-3.236,-30.227c-2.506,-0.243 -4.546,-3.096 -3.136,-5.531c0.445,-0.769 0.764,-1.209 2.172,-1.71l0.183,-0.054Zm-67.168,24.366l-10.186,-10.693c-0.685,-0.775 -0.782,-1.102 -0.926,-1.698c-0.478,-1.973 0.936,-4.221 3.025,-4.564c0.53,-0.087 0.662,-0.046 0.835,-0.042c0.915,0.091 1.503,0.206 2.474,1.152l9.49,9.962l19.298,-5.711c1.199,-0.285 1.236,-0.148 1.602,-0.114c3.11,0.63 4.236,5.324 1.263,6.965c-0.316,0.174 -0.408,0.191 -0.746,0.311l-18.509,5.478l0.744,7.103c0.158,2.958 -3.512,5.257 -5.992,3.349c-0.768,-0.59 -1.197,-1.035 -1.437,-2.571l-0.935,-8.927Zm57.843,-21.246c1.293,0.261 1.607,0.551 2.126,1.081c1.777,1.814 0.932,5.291 -1.608,6.195l-21.488,6.359c-2.967,0.706 -5.914,-2.65 -4.292,-5.452c0.446,-0.77 0.764,-1.209 2.173,-1.711l21.487,-6.358c1.199,-0.286 1.236,-0.148 1.602,-0.114Zm-84.672,-16.303c1.452,0.144 1.741,0.438 2.474,1.151l10.303,10.817c0.604,0.684 0.693,0.942 0.85,1.429c0.731,2.264 -1.243,5.032 -3.784,4.875c-0.93,-0.057 -1.8,-0.495 -2.474,-1.152l-10.304,-10.817c-1.277,-1.444 -1.073,-2.004 -1.023,-2.806c0.103,-1.67 1.451,-3.181 3.122,-3.455c0.53,-0.087 0.662,-0.047 0.836,-0.042Zm95.234,-5.796l12.654,-16.97l-52.656,-6.062c13.334,7.677 26.668,15.354 40.002,23.032Z" style="fill-rule:nonzero;"/></g></svg>